<svg width="25" height="24" viewBox="0 0 25 24" fill="none" xmlns="http://www.w3.org/2000/svg">
<g id="fluent:production-24-regular">
<path id="Vector" d="M6.75 3.5C6.28587 3.5 5.84075 3.68437 5.51256 4.01256C5.18437 4.34075 5 4.78587 5 5.25V7.75C5 8.716 5.784 9.5 6.75 9.5H9.25C9.71413 9.5 10.1592 9.31563 10.4874 8.98744C10.8156 8.65925 11 8.21413 11 7.75V5.25C11 4.78587 10.8156 4.34075 10.4874 4.01256C10.1592 3.68437 9.71413 3.5 9.25 3.5H6.75ZM14 5.25C14 4.284 14.784 3.5 15.75 3.5H18.25C19.216 3.5 20 4.284 20 5.25V7.75C20 8.21413 19.8156 8.65925 19.4874 8.98744C19.1592 9.31563 18.7141 9.5 18.25 9.5H15.75C15.2859 9.5 14.8408 9.31563 14.5126 8.98744C14.1844 8.65925 14 8.21413 14 7.75V5.25ZM15.75 5C15.6837 5 15.6201 5.02634 15.5732 5.07322C15.5263 5.12011 15.5 5.1837 15.5 5.25V7.75C15.5 7.888 15.612 8 15.75 8H18.25C18.3163 8 18.3799 7.97366 18.4268 7.92678C18.4737 7.87989 18.5 7.8163 18.5 7.75V5.25C18.5 5.1837 18.4737 5.12011 18.4268 5.07322C18.3799 5.02634 18.3163 5 18.25 5H15.75ZM7.5 17.5C7.89782 17.5 8.27936 17.342 8.56066 17.0607C8.84196 16.7794 9 16.3978 9 16C9 15.6022 8.84196 15.2206 8.56066 14.9393C8.27936 14.658 7.89782 14.5 7.5 14.5C7.10218 14.5 6.72064 14.658 6.43934 14.9393C6.15804 15.2206 6 15.6022 6 16C6 16.3978 6.15804 16.7794 6.43934 17.0607C6.72064 17.342 7.10218 17.5 7.5 17.5ZM14 16C14 16.3978 13.842 16.7794 13.5607 17.0607C13.2794 17.342 12.8978 17.5 12.5 17.5C12.1022 17.5 11.7206 17.342 11.4393 17.0607C11.158 16.7794 11 16.3978 11 16C11 15.6022 11.158 15.2206 11.4393 14.9393C11.7206 14.658 12.1022 14.5 12.5 14.5C12.8978 14.5 13.2794 14.658 13.5607 14.9393C13.842 15.2206 14 15.6022 14 16ZM17.5 17.5C17.8978 17.5 18.2794 17.342 18.5607 17.0607C18.842 16.7794 19 16.3978 19 16C19 15.6022 18.842 15.2206 18.5607 14.9393C18.2794 14.658 17.8978 14.5 17.5 14.5C17.1022 14.5 16.7206 14.658 16.4393 14.9393C16.158 15.2206 16 15.6022 16 16C16 16.3978 16.158 16.7794 16.4393 17.0607C16.7206 17.342 17.1022 17.5 17.5 17.5ZM2.5 16C2.5 14.8065 2.97411 13.6619 3.81802 12.818C4.66193 11.9741 5.80653 11.5 7 11.5H18C19.1935 11.5 20.3381 11.9741 21.182 12.818C22.0259 13.6619 22.5 14.8065 22.5 16C22.5 17.1935 22.0259 18.3381 21.182 19.182C20.3381 20.0259 19.1935 20.5 18 20.5H7C5.80653 20.5 4.66193 20.0259 3.81802 19.182C2.97411 18.3381 2.5 17.1935 2.5 16ZM7 13C6.20435 13 5.44129 13.3161 4.87868 13.8787C4.31607 14.4413 4 15.2044 4 16C4 16.7956 4.31607 17.5587 4.87868 18.1213C5.44129 18.6839 6.20435 19 7 19H18C18.7956 19 19.5587 18.6839 20.1213 18.1213C20.6839 17.5587 21 16.7956 21 16C21 15.2044 20.6839 14.4413 20.1213 13.8787C19.5587 13.3161 18.7956 13 18 13H7Z" fill="#464646"/>
</g>
</svg>
